# xmcd CD database file
#
# Track frame offsets:
#	150
#	69450
#	87075
#	99750
#	115947
#	128550
#
# Disc length: 2184 seconds
#
# Revision: 0
# Processed by: cddbd v1.5PL3 Copyright (c) Steve Scherf et al.
# Submitted via: CDex 1.50
#
DISCID=3f088606
DTITLE=Gillespie, Monk, Winding, Stitt, Blakey, McKibbon - Giants of jazz
DYEAR=1972
DGENRE=Jazz
TTITLE0=Thelonious Monk and Dizzy Gillespie - Straight no chaser
TTITLE1=Thelonious Monk and Dizzy Gillespie - Thelonious
TTITLE2=Thelonious Monk and Dizzy Gillespie - Sweet and lovely
TTITLE3=Thelonious Monk and Dizzy Gillespie - Don't blame me
TTITLE4=Thelonious Monk and Dizzy Gillespie - I'll wait for you
TTITLE5=Thelonious Monk and Dizzy Gillespie - Epistrophy
EXTD=YEAR: 1972
EXTT0=
EXTT1=
EXTT2=
EXTT3=
EXTT4=
EXTT5=
PLAYORDER=
